<svg aria-hidden="true" style="position:absolute;width:0;height:0" xmlns="http://www.w3.org/2000/svg" overflow="hidden"><defs><symbol id="icon-search" viewBox="0 0 24 24"><path  d="M23.256 20.423l-5.685-4.835c-.588-.529-1.216-.772-1.724-.748A9 9 0 009 0C4.029 0 0 4.029 0 9a9 9 0 0014.84 6.847c-.023.508.219 1.136.748 1.724l4.835 5.685c.828.92 2.18.997 3.005.172s.747-2.177-.172-3.005zM9 15A6 6 0 119 3a6 6 0 010 12z"/></symbol><symbol id="icon-circle-up" viewBox="0 0 24 24"><path d="M0 12c0 6.627 5.373 12 12 12s12-5.373 12-12S18.627 0 12 0 0 5.373 0 12zm21.75 0c0 5.385-4.365 9.75-9.75 9.75S2.25 17.385 2.25 12 6.615 2.25 12 2.25s9.75 4.365 9.75 9.75z"/><path d="M16.564 15.686l2.121-2.121-6.686-6.686-6.686 6.686 2.121 2.121 4.564-4.564z" /></symbol></defs></svg>